# xmcd
#
# Track frame offsets: 
#        150
#        11532
#        22775
#        33732
#        44795
#        60382
#        85580
#        96060
#        107402
#        116320
#        127827
#        141295
#        155852
#        167907
#        180502
#        194230
#        217927
#        238505
#
# Disc length: 3493 seconds
#
# Revision: 0
# Processed by: cddbd v1.4PL0 Copyright (c) Steve Scherf et al.
# Submitted via: ExactAudioCopy v0.90b3
#
DISCID=eb0da312
DTITLE=The Yardbirds - The Masters - Disc 1
DYEAR=1997
DGENRE=Rock
TTITLE0=For Your Love
TTITLE1=Heart Full Of Soul
TTITLE2=Evil Hearted You
TTITLE3=Shapes Of Things
TTITLE4=The Train Kept A- Rollin'
TTITLE5=Smokestack Lightning
TTITLE6=Let It Rock
TTITLE7=Honey In Your Hips
TTITLE8=Talkin' around You
TTITLE9=Got To Hurry
TTITLE10=Too Much Monkey Business
TTITLE11=Highway
TTITLE12=I Got Love If You want It
TTITLE13=Good Morning Little Schoolgirl
TTITLE14=Pretty Girl
TTITLE15=Five Long Years
TTITLE16=I'm A Man
TTITLE17=Hours Too Long
EXTD=
EXTT0=
EXTT1=
EXTT2=
EXTT3=
EXTT4=
EXTT5=
EXTT6=
EXTT7=
EXTT8=
EXTT9=
EXTT10=
EXTT11=
EXTT12=
EXTT13=
EXTT14=
EXTT15=
EXTT16=
EXTT17=
PLAYORDER=
